<?xml version="1.0" standalone="no"?>
<!DOCTYPE svg PUBLIC "-//W3C//DTD SVG 20010904//EN"
 "http://www.w3.org/TR/2001/REC-SVG-20010904/DTD/svg10.dtd">
<svg version="1.0" xmlns="http://www.w3.org/2000/svg"
 width="169.000000pt" height="40.000000pt" viewBox="0 0 169.000000 40.000000"
 preserveAspectRatio="xMidYMid meet">

<g transform="translate(0.000000,40.000000) scale(0.100000,-0.100000)"
fill="#000000" stroke="none">
<path d="M146 385 c-101 -26 -159 -130 -132 -236 31 -120 162 -176 279 -120
54 26 85 67 96 128 28 149 -97 267 -243 228z m32 -115 c3 -34 1 -35 -33 -37
-34 -3 -35 -2 -35 30 0 41 7 49 40 45 21 -2 25 -9 28 -38z m109 -36 c-3 -3
-12 -4 -19 -1 -8 3 -5 6 6 6 11 1 17 -2 13 -5z m-40 -65 l23 -25 -20 -22 c-28
-30 -58 -28 -66 4 -5 18 0 32 16 50 13 13 24 23 24 21 1 -1 11 -14 23 -28z"/>
<path d="M1423 320 c23 -37 -19 -74 -57 -50 -19 12 -20 12 -7 -3 15 -19 46
-22 56 -7 4 6 11 8 16 5 5 -4 9 11 9 33 0 26 -4 39 -14 39 -11 0 -12 -4 -3
-17z"/>
<path d="M1473 280 c0 -36 2 -50 4 -32 2 17 2 47 0 65 -2 17 -4 3 -4 -33z"/>
<path d="M1592 276 c2 -60 2 -60 5 -11 3 27 8 54 13 61 7 7 5 11 -5 11 -12 0
-15 -13 -13 -61z"/>
<path d="M1665 271 c-6 -5 -19 -11 -30 -14 -19 -4 -19 -5 1 -6 12 0 27 6 34
14 14 16 10 20 -5 6z"/>
<path d="M1040 219 c0 -39 0 -40 -22 -25 -30 21 -50 20 -82 -5 -37 -29 -37
-89 0 -118 32 -25 52 -26 82 -5 12 8 22 10 22 5 0 -6 5 -11 10 -11 6 0 10 40
10 100 0 60 -4 100 -10 100 -5 0 -10 -18 -10 -41z m-18 -46 c36 -32 11 -103
-36 -103 -27 0 -40 9 -55 37 -29 57 43 110 91 66z"/>
<path d="M1100 245 c0 -8 5 -15 10 -15 6 0 10 7 10 15 0 8 -4 15 -10 15 -5 0
-10 -7 -10 -15z"/>
<path d="M1508 253 c7 -3 16 -2 19 1 4 3 -2 6 -13 5 -11 0 -14 -3 -6 -6z"/>
<path d="M481 167 c-13 -98 -14 -107 -2 -107 4 0 12 33 16 73 l7 72 38 -75 38
-75 33 68 c18 37 36 67 40 67 3 0 9 -28 13 -62 6 -60 11 -76 21 -66 7 6 -16
171 -25 181 -4 4 -22 -26 -40 -68 -18 -41 -36 -75 -39 -75 -4 0 -23 32 -41 71
-19 39 -37 72 -41 75 -3 2 -11 -34 -18 -79z"/>
<path d="M764 200 c-32 -13 -49 -63 -35 -99 12 -27 47 -51 75 -51 16 0 69 40
62 47 -3 3 -15 -2 -28 -11 -32 -22 -64 -20 -82 6 -9 12 -16 26 -16 30 0 5 29
8 65 8 58 0 65 2 65 19 0 22 -45 61 -69 60 -9 0 -25 -4 -37 -9z m67 -20 c38
-21 23 -40 -31 -40 -34 0 -50 4 -50 13 0 33 43 47 81 27z"/>
<path d="M1179 181 c-37 -37 -37 -65 1 -103 26 -25 36 -29 63 -24 17 4 39 14
47 23 14 14 13 15 -5 8 -46 -18 -73 -17 -94 4 -26 26 -27 55 -1 81 21 21 74
27 85 10 3 -5 12 -10 18 -10 7 1 1 10 -12 20 -33 28 -68 25 -102 -9z"/>
<path d="M1100 130 c0 -40 4 -70 10 -70 6 0 10 30 10 70 0 40 -4 70 -10 70 -6
0 -10 -30 -10 -70z"/>
</g>
</svg>
